HIERARCHY
ROOT Hips
{
    OFFSET   0.000000   0.000000   0.000000
    CHANNELS 6 Xposition Yposition Zposition Zrotation Xrotation Yrotation
    JOINT Chest
    {
        OFFSET   0.000000   8.007230   0.000000
        CHANNELS 3 Zrotation Xrotation Yrotation
        JOINT Chest2
        {
            OFFSET   0.000000  22.077100   0.000000
            CHANNELS 3 Zrotation Xrotation Yrotation
            JOINT Neck
            {
                OFFSET   0.000000  23.254800  -0.000021
                CHANNELS 3 Zrotation Xrotation Yrotation
                JOINT Head
                {
                    OFFSET   0.000000  14.370000   1.956610
                    CHANNELS 3 Zrotation Xrotation Yrotation
                    End Site
                    {
                        OFFSET   0.000000  19.566000   0.000000
                    }
                }
            }
            JOINT LeftCollar
            {
                OFFSET   3.911900  19.017000  -0.467063
                CHANNELS 3 Zrotation Xrotation Yrotation
                JOINT LeftShoulder
                {
                    OFFSET  10.383700   0.000000   0.000000
                    CHANNELS 3 Zrotation Xrotation Yrotation
                    JOINT LeftElbow
                    {
                        OFFSET  26.662100   0.001529   0.000325
                        CHANNELS 3 Zrotation Xrotation Yrotation
                        JOINT LeftWrist
                        {
                            OFFSET  28.869000  -0.000011  -0.000096
                            CHANNELS 3 Zrotation Xrotation Yrotation
                            JOINT LeftFinger0
                            {
                                OFFSET   2.044650  -2.323460   3.252850
                                CHANNELS 3 Zrotation Xrotation Yrotation
                                JOINT LeftFinger01
                                {
                                    OFFSET   3.088130   0.000000   0.000000
                                    CHANNELS 3 Zrotation Xrotation Yrotation
                                    JOINT LeftFinger02
                                    {
                                        OFFSET   2.639460   0.000000   0.000000
                                        CHANNELS 3 Zrotation Xrotation Yrotation
                                        End Site
                                        {
                                            OFFSET   2.582190   0.000000   0.000000
                                        }
                                    }
                                }
                            }
                            JOINT LeftFinger1
                            {
                                OFFSET   8.364480   0.000000   3.252850
                                CHANNELS 3 Zrotation Xrotation Yrotation
                                JOINT LeftFinger11
                                {
                                    OFFSET   4.646930   0.000000   0.000000
                                    CHANNELS 3 Zrotation Xrotation Yrotation
                                    JOINT LeftFinger12
                                    {
                                        OFFSET   2.323460   0.000000   0.000000
                                        CHANNELS 3 Zrotation Xrotation Yrotation
                                        End Site
                                        {
                                            OFFSET   2.273050   0.000000   0.000000
                                        }
                                    }
                                }
                            }
                            JOINT LeftFinger2
                            {
                                OFFSET   8.364480   0.000016   1.078090
                                CHANNELS 3 Zrotation Xrotation Yrotation
                                JOINT LeftFinger21
                                {
                                    OFFSET   5.111620   0.000000   0.000000
                                    CHANNELS 3 Zrotation Xrotation Yrotation
                                    JOINT LeftFinger22
                                    {
                                        OFFSET   2.788160   0.000017   0.000000
                                        CHANNELS 3 Zrotation Xrotation Yrotation
                                        End Site
                                        {
                                            OFFSET   2.727660   0.000000   0.000000
                                        }
                                    }
                                }
                            }
                            JOINT LeftFinger3
                            {
                                OFFSET   7.899780   0.000015  -1.078090
                                CHANNELS 3 Zrotation Xrotation Yrotation
                                JOINT LeftFinger31
                                {
                                    OFFSET   4.646920   0.000000   0.000000
                                    CHANNELS 3 Zrotation Xrotation Yrotation
                                    JOINT LeftFinger32
                                    {
                                        OFFSET   2.323470   0.000000   0.000000
                                        CHANNELS 3 Zrotation Xrotation Yrotation
                                        End Site
                                        {
                                            OFFSET   2.273050   0.000000   0.000000
                                        }
                                    }
                                }
                            }
                            JOINT LeftFinger4
                            {
                                OFFSET   7.435090   0.000000  -3.252850
                                CHANNELS 3 Zrotation Xrotation Yrotation
                                JOINT LeftFinger41
                                {
                                    OFFSET   3.717550   0.000000   0.000000
                                    CHANNELS 3 Zrotation Xrotation Yrotation
                                    JOINT LeftFinger42
                                    {
                                        OFFSET   1.858760   0.000000   0.000000
                                        CHANNELS 3 Zrotation Xrotation Yrotation
                                        End Site
                                        {
                                            OFFSET   1.818440   0.000000   0.000000
                                        }
                                    }
                                }
                            }
                        }
                    }
                }
            }
            JOINT RightCollar
            {
                OFFSET  -3.911900  19.017000  -0.467062
                CHANNELS 3 Zrotation Xrotation Yrotation
                JOINT RightShoulder
                {
                    OFFSET -10.383700   0.000015   0.000000
                    CHANNELS 3 Zrotation Xrotation Yrotation
                    JOINT RightElbow
                    {
                        OFFSET -26.662100   0.001341   0.000385
                        CHANNELS 3 Zrotation Xrotation Yrotation
                        JOINT RightWrist
                        {
                            OFFSET -28.869000   0.000025  -0.000080
                            CHANNELS 3 Zrotation Xrotation Yrotation
                            JOINT RightFinger0
                            {
                                OFFSET  -2.044650  -2.323490   3.252850
                                CHANNELS 3 Zrotation Xrotation Yrotation
                                JOINT RightFinger01
                                {
                                    OFFSET  -3.088130   0.000000   0.000000
                                    CHANNELS 3 Zrotation Xrotation Yrotation
                                    JOINT RightFinger02
                                    {
                                        OFFSET  -2.639460   0.000000   0.000000
                                        CHANNELS 3 Zrotation Xrotation Yrotation
                                        End Site
                                        {
                                            OFFSET  -2.582190   0.000000   0.000000
                                        }
                                    }
                                }
                            }
                            JOINT RightFinger1
                            {
                                OFFSET  -8.364480   0.000000   3.252850
                                CHANNELS 3 Zrotation Xrotation Yrotation
                                JOINT RightFinger11
                                {
                                    OFFSET  -4.646930   0.000000   0.000000
                                    CHANNELS 3 Zrotation Xrotation Yrotation
                                    JOINT RightFinger12
                                    {
                                        OFFSET  -2.323470   0.000000   0.000000
                                        CHANNELS 3 Zrotation Xrotation Yrotation
                                        End Site
                                        {
                                            OFFSET  -2.273050   0.000000   0.000000
                                        }
                                    }
                                }
                            }
                            JOINT RightFinger2
                            {
                                OFFSET  -8.364480   0.000000   1.078090
                                CHANNELS 3 Zrotation Xrotation Yrotation
                                JOINT RightFinger21
                                {
                                    OFFSET  -5.111610   0.000000   0.000000
                                    CHANNELS 3 Zrotation Xrotation Yrotation
                                    JOINT RightFinger22
                                    {
                                        OFFSET  -2.788160   0.000000   0.000000
                                        CHANNELS 3 Zrotation Xrotation Yrotation
                                        End Site
                                        {
                                            OFFSET  -2.727660   0.000000   0.000000
                                        }
                                    }
                                }
                            }
                            JOINT RightFinger3
                            {
                                OFFSET  -7.899780   0.000000  -1.078090
                                CHANNELS 3 Zrotation Xrotation Yrotation
                                JOINT RightFinger31
                                {
                                    OFFSET  -4.646920   0.000000   0.000000
                                    CHANNELS 3 Zrotation Xrotation Yrotation
                                    JOINT RightFinger32
                                    {
                                        OFFSET  -2.323470   0.000000   0.000000
                                        CHANNELS 3 Zrotation Xrotation Yrotation
                                        End Site
                                        {
                                            OFFSET  -2.273050   0.000000   0.000000
                                        }
                                    }
                                }
                            }
                            JOINT RightFinger4
                            {
                                OFFSET  -7.435090   0.000000  -3.252850
                                CHANNELS 3 Zrotation Xrotation Yrotation
                                JOINT RightFinger41
                                {
                                    OFFSET  -3.717550   0.000000   0.000000
                                    CHANNELS 3 Zrotation Xrotation Yrotation
                                    JOINT RightFinger42
                                    {
                                        OFFSET  -1.858770   0.000000   0.000000
                                        CHANNELS 3 Zrotation Xrotation Yrotation
                                        End Site
                                        {
                                            OFFSET  -1.818440   0.000000   0.000000
                                        }
                                    }
                                }
                            }
                        }
                    }
                }
            }
        }
    }
    JOINT LeftHip
    {
        OFFSET   9.783010   0.000000   0.000000
        CHANNELS 3 Zrotation Xrotation Yrotation
        JOINT LeftKnee
        {
            OFFSET   0.000070 -41.789100   0.000028
            CHANNELS 3 Zrotation Xrotation Yrotation
            JOINT LeftAnkle
            {
                OFFSET   0.000087 -41.133200  -0.000100
                CHANNELS 3 Zrotation Xrotation Yrotation
                JOINT LeftToe
                {
                    OFFSET   0.000000  -6.358960  14.674500
                    CHANNELS 3 Zrotation Xrotation Yrotation
                    End Site
                    {
                        OFFSET   0.000000   0.000000   3.913200
                    }
                }
            }
        }
    }
    JOINT RightHip
    {
        OFFSET  -9.783020   0.000000   0.000000
        CHANNELS 3 Zrotation Xrotation Yrotation
        JOINT RightKnee
        {
            OFFSET   0.000044 -41.789100  -0.000870
            CHANNELS 3 Zrotation Xrotation Yrotation
            JOINT RightAnkle
            {
                OFFSET  -0.000090 -41.133200  -0.000245
                CHANNELS 3 Zrotation Xrotation Yrotation
                JOINT RightToe
                {
                    OFFSET   0.000000  -6.358960  14.674500
                    CHANNELS 3 Zrotation Xrotation Yrotation
                    End Site
                    {
                        OFFSET   0.000000   0.000000   3.913200
                    }
                }
            }
        }
    }
}
MOTION
Frames: 5
Frame Time:   0.016667
  0.644412  89.387300   0.202724  -0.557434  -7.215880   2.828580   0.209555   6.058080   0.347919   0.385130  12.117400   0.679168   5.081110  -9.885820   0.874572   9.050420 -19.567500  15.492300  -5.815910   1.134060   6.990290 -75.465900  12.433000  -5.521490  -0.185900   4.240860 -17.627800  10.180300  -5.841450  -3.235340  42.420600  34.585000 -52.271600 -29.562300   0.002668   0.003085  -9.781110   0.000896   0.001885 -32.681600  -0.506719   0.789707 -26.742500   0.003874  -0.007673 -18.719800   0.003177  -0.009271 -26.671300  -4.336160   8.572350 -26.983200  -0.001528  -0.010898 -17.970800  -0.001008   0.003894 -28.380200  -4.597360   8.439030 -39.473700  -0.000591   0.000850 -26.289400   0.010157  -0.004525 -35.952700  -5.672230   7.760280 -54.506400  -0.003448  -0.010087 -36.301300  -0.002365  -0.000727   6.699370   0.976910   6.753640  63.280200 -10.071400  43.333300   4.096140 -16.146600 115.082000  58.972700   0.353650  31.450700 -45.784800  35.814200  54.892300  25.540700   0.000217  -0.004444   7.770370   0.009304  -0.002236  19.268800   3.648180  10.315000  16.034700   0.002319  -0.002289  11.224300  -0.000086  -0.003555  18.165200   3.446990  10.383300  18.478300   0.001179   0.001245  12.306600  -0.001619  -0.000962  14.773800   0.579450   2.195360  14.784700   0.000000  -0.003880   9.846610  -0.001633  -0.000758  17.866000  -0.456312  -1.416390  26.807000  -0.010257   0.005735  17.853500  -0.005700   0.003049   4.109890   9.905760  -1.287500   0.150560   0.103816  13.586800  -4.236920  -2.387940  -1.861150  -0.000000   0.000000   0.000000  -1.890150  10.368100  -6.441320   1.244890   0.394918 -11.823800   0.188086  -2.590560  -0.487906   0.000000   0.000000   0.000000
  0.676082  89.387500   0.185734  -0.578152  -7.215870   2.861140   0.224074   6.058460   0.306745   0.419945  12.117800   0.594562   5.052810  -9.847350   0.866339   8.993620 -19.497000  15.511500  -5.800090   1.153940   7.042130 -75.536100  12.220500  -5.368950  -0.187524   4.309800 -17.902400   9.989030  -6.012020  -3.162810  42.636500  35.033900 -52.665000 -29.674400   0.002681   0.003119  -9.837170   0.000920   0.001891 -32.644100  -0.538107   0.839914 -26.712400   0.003903  -0.007771 -18.698700   0.003235  -0.009389 -26.687900  -4.336140   8.563690 -27.049100  -0.001523  -0.010998 -18.014700  -0.001022   0.003951 -28.378000  -4.593050   8.432000 -39.411000  -0.000633   0.000850 -26.247700   0.010219  -0.004536 -35.909100  -5.661480   7.756790 -54.439600  -0.003445  -0.010266 -36.256800  -0.002369  -0.000748   6.694370   1.026410   6.752620  63.157600  -9.894220  43.378100   3.861890 -16.327800 115.035000  58.744700   0.246955  31.324200 -45.745200  35.822700  54.800000  25.613500   0.000286  -0.004813   7.806780   0.009158  -0.002429  19.342300   3.609480  10.167500  16.088000   0.002573  -0.002615  11.261600   0.000024  -0.004108  18.242200   3.411970  10.234900  18.547800   0.001533   0.000933  12.352800  -0.001554  -0.001261  14.776700   0.530295   2.008410  14.784400   0.000237  -0.004444   9.846410  -0.001492  -0.000770  17.944700  -0.534545  -1.651500  26.929200  -0.010025   0.005889  17.934900  -0.005475   0.003178   4.120900   9.905730  -1.263380   0.147342   0.042101  13.537200  -4.200470  -2.364660  -1.874190   0.000000   0.000000   0.000000  -1.865200  10.338000  -6.393020   1.224280   0.396380 -11.841900   0.192992  -2.568210  -0.553627   0.000000   0.000000  -0.000000
  0.710188  89.387600   0.168711  -0.593248  -7.216870   2.912770   0.235714   6.058540   0.260223   0.447358  12.118000   0.499454   5.020280  -9.796270   0.856319   8.929670 -19.401800  15.528200  -5.790770   1.173760   7.089830 -75.588000  12.138400  -5.290270  -0.193479   4.318460 -18.016000   9.869260  -6.036740  -3.090940  42.744700  35.276000 -52.880200 -29.753200   0.002693   0.003153  -9.876590   0.000941   0.001899 -32.600900  -0.569265   0.890067 -26.676800   0.003933  -0.007870 -18.673800   0.003293  -0.009507 -26.715300  -4.336100   8.549390 -27.157900  -0.001518  -0.011095 -18.087200  -0.001035   0.004008 -28.374700  -4.585980   8.420340 -39.318300  -0.000681   0.000849 -26.186000   0.010277  -0.004546 -35.834400  -5.643370   7.754170 -54.325800  -0.003441  -0.010439 -36.181000  -0.002373  -0.000770   6.690640   1.097920   6.751660  63.065800  -9.730530  43.396100   3.666860 -16.503400 114.961000  58.538300   0.161382  31.189100 -45.710800  35.824700  54.715700  25.660700   0.000361  -0.005179   7.830350   0.009012  -0.002618  19.401700   3.572640  10.032700  16.130900   0.002829  -0.002950  11.291600   0.000140  -0.004664  18.305900   3.378580  10.099100  18.604600   0.001894   0.000608  12.390600  -0.001481  -0.001576  14.774400   0.487709   1.847850  14.782300   0.000481  -0.005009   9.845040  -0.001351  -0.000786  17.999700  -0.606132  -1.867580  27.014600  -0.009786   0.006044  17.991800  -0.005245   0.003311   4.120610   9.905010  -1.224880   0.149274   0.001545  13.481000  -4.164380  -2.341350  -1.898990   0.000000   0.000000   0.000000  -1.842500  10.321600  -6.348140   1.205390   0.397818 -11.876300   0.198048  -2.549000  -0.615836  -0.000000   0.000000  -0.000000
  0.746060  89.387800   0.151402  -0.601236  -7.228240   2.956530   0.242266   6.058390   0.221501   0.463705  12.117800   0.420606   4.984040  -9.736650   0.844975   8.854360 -19.290200  15.500600  -5.791990   1.179840   7.111950 -75.601900  12.217800  -5.279750  -0.195954   4.262590 -17.968500   9.863920  -5.900890  -3.048670  42.752100  35.260500 -52.894300 -29.721200   0.002709   0.003184  -9.860570   0.000964   0.001916 -32.592900  -0.612657   0.958335 -26.670500   0.003961  -0.007971 -18.669300   0.003348  -0.009626 -26.732500  -4.336040   8.540550 -27.224400  -0.001513  -0.011189 -18.131500  -0.001048   0.004065 -28.372200  -4.581650   8.413160 -39.264300  -0.000733   0.000849 -26.150100   0.010331  -0.004552 -35.769200  -5.629660   7.752940 -54.226500  -0.003436  -0.010605 -36.114800  -0.002376  -0.000794   6.693640   1.128670   6.745690  63.019600  -9.610110  43.357500   3.495860 -16.634500 114.878000  58.358500   0.077384  31.071500 -45.702100  35.822000  54.662000  25.664300   0.000438  -0.005540   7.832180   0.008876  -0.002804  19.420500   3.559720   9.985290  16.144700   0.003083  -0.003300  11.301200   0.000261  -0.005227  18.327100   3.367180  10.051300  18.623600   0.002264   0.000273  12.403300  -0.001399  -0.001904  14.725100   0.472815   1.794000  14.734200   0.000706  -0.005577   9.813020  -0.001184  -0.000808  18.006200  -0.643029  -1.984940  27.026300  -0.009537   0.006201  17.999600  -0.005012   0.003445   4.113510   9.886040  -1.191470   0.146997   0.015686  13.437400  -4.134210  -2.342230  -1.932990  -0.000000   0.000000  -0.000000  -1.827360  10.307800  -6.294610   1.184430   0.412940 -11.918300   0.207377  -2.536660  -0.668419  -0.000000   0.000000   0.000000
  0.782686  89.387900   0.134440  -0.606394  -7.246020   2.981280   0.245841   6.057250   0.190998   0.475261  12.115200   0.358722   4.945020  -9.668130   0.832477   8.778230 -19.161700  15.431000  -5.792830   1.185310   7.118100 -75.602100  12.399600  -5.281690  -0.197995   4.162480 -17.813400   9.876130  -5.663070  -3.008900  42.745900  35.215100 -52.892200 -29.689100   0.002721   0.003217  -9.844560   0.000986   0.001933 -32.590500  -0.655688   1.025490 -26.669600   0.003990  -0.008073 -18.668700   0.003404  -0.009744 -26.758100  -4.335590   8.527210 -27.326700  -0.001508  -0.011281 -18.199600  -0.001061   0.004123 -28.371000  -4.575360   8.402040 -39.233800  -0.000786   0.000849 -26.129700   0.010381  -0.004557 -35.705900  -5.613600   7.750100 -54.130000  -0.003430  -0.010765 -36.050500  -0.002380  -0.000820   6.709870   1.153010   6.734840  62.986400  -9.520660  43.285300   3.317240 -16.758900 114.797000  58.202700  -0.059119  30.956200 -45.677900  35.790500  54.596700  25.668000   0.000521  -0.005898   7.834000   0.008741  -0.002986  19.434800   3.536230   9.912230  16.152600   0.003342  -0.003660  11.306800   0.000388  -0.005794  18.352200   3.347190   9.977050  18.644900   0.002639  -0.000067  12.417500  -0.001311  -0.002249  14.680700   0.449847   1.707790  14.688000   0.000932  -0.006147   9.782180  -0.001008  -0.000844  18.011500  -0.694163  -2.142430  27.037900  -0.009284   0.006361  18.007300  -0.004772   0.003584   4.104150   9.860030  -1.172400   0.143054   0.036851  13.415400  -4.105560  -2.345080  -1.955220  -0.000000   0.000000   0.000000  -1.823170  10.299100  -6.244550   1.165320   0.432373 -11.954000   0.218731  -2.526030  -0.708553   0.000000   0.000000   0.000000
